<?xml version="1.0" encoding="UTF-8" standalone="no"?>
<svg
   xmlns:dc="http://purl.org/dc/elements/1.1/"
   xmlns:cc="http://creativecommons.org/ns#"
   xmlns:rdf="http://www.w3.org/1999/02/22-rdf-syntax-ns#"
   xmlns:svg="http://www.w3.org/2000/svg"
   xmlns="http://www.w3.org/2000/svg"
   height="351.852236978"
   width="284.210215228"
   id="svg4"
   version="1.1"
   viewBox="0 0 300 371.39999">
  <metadata
     id="metadata10">
    <rdf:RDF>
      <cc:Work
         rdf:about="">
        <dc:format>image/svg+xml</dc:format>
        <dc:type
           rdf:resource="http://purl.org/dc/dcmitype/StillImage" />
        <dc:title></dc:title>
      </cc:Work>
    </rdf:RDF>
  </metadata>
  <defs
     id="defs8" />
  <path
     id="path2"
     style="color:#000000;fill:#000000;stroke-width:0.99339926"
     d="m 289.34211,334.7 h -23.98027 c -1.38158,0 -2.17105,-0.5 -2.56579,-1 -0.78947,-0.8 -0.88816,-1.9 -0.88816,-2.3 V 327 c 0,-2.3 1.57895,-3.6 3.45395,-3.9 H 283.125 c 2.66447,0 3.84868,1.6 4.14474,2.9 h 12.43421 c 0,0 0,-1.3 -0.0987,-1.8 -0.5921,-11.1 -11.15131,-13.3 -11.05263,-13.3 h -25.06579 c -13.02631,0 -13.81579,13.1 -13.81579,13.6 v 8.4 c 1.18421,12.1 11.64474,13.5 11.84211,13.6 h 21.71052 c 1.97369,0 3.45395,0.5 4.24343,1.5 0.39473,0.4 0.78947,1.2 0.69078,2.2 v 4.2 c 0,3.9 -2.36842,4.2 -2.96052,4.2 h -19.34211 c -1.77631,0 -3.15789,-0.4 -3.84868,-1.3 -0.29605,-0.3 -0.49342,-0.6 -0.59211,-0.9 h -11.64473 c 0.49342,13.6 11.44737,15 11.8421,15 h 24.57237 c 12.92763,0 13.61842,-12.4 13.61842,-12.9 v -12.9 c -0.0987,-7.3 -8.98026,-10.4 -10.46052,-10.9 M 80.032895,310.9 54.177632,371.4 H 67.203947 L 73.421053,357 h 23.486842 l 6.019735,14.4 h 13.22369 L 91.085526,310.9 Z m -1.381579,34 6.80921,-15.6 6.513158,15.6 z m 73.717104,-10.3 -17.76316,-23.7 h -12.03947 v 60.5 h 12.03947 v -39.3 l 17.26974,21.8 17.26974,-21.8 v 39.3 h 12.03947 v -60.5 h -11.34868 m 22.59868,60.5 h 47.76316 v -12.2 h -35.72369 v -12 h 35.72369 v -12.5 h -35.52632 v -12.1 h 35.52632 v -11.7 h -47.76316 m -180.296052,16 c 0,-3 1.677631,-4 3.157895,-4 h 20.526315 c 1.776316,0 2.861843,1.2 3.355264,2.3 h 12.43421 l -0.09868,-0.6 C 48.552632,311.3 40.559211,310.9 39.671053,310.9 H 12.039474 C 0.98684211,310.9 0.09868421,323.5 0,323.9 v 33.8 c 0,11.8 12.138158,13.7 12.039474,13.7 h 24.276315 c 13.914474,0 15.394737,-13.3 15.394737,-13.7 V 334.2 H 26.348684 v 12.1 h 12.434211 v 8.3 c 0,3 -2.368421,4.1 -3.947369,4.1 H 16.480263 c -1.677631,0 -2.861842,-0.5 -3.651316,-1.4 -0.789473,-0.9 -0.789473,-2 -0.690789,-2.7 z M 232.89474,274.3 H 300 l -3.05921,-155.5 -65.92105,-40 M 296.44737,95.9 295.26316,39 230.32895,0 l 0.49342,56.2 m -21.61184,85.4 -65.625,30 -0.19737,32.4 -74.901318,0.1 1.085526,-64.6 74.309212,-32.3 -0.0987,26.2 65.23027,-29.5 L 208.42105,0.5 4.7368421,90.8 0,274.3 h 209.70395" />
</svg>
