<?xml version="1.0" encoding="utf-8"?>
<!-- Generator: Adobe Illustrator 23.0.3, SVG Export Plug-In . SVG Version: 6.00 Build 0)  -->
<svg version="1.1" id="Layer_1" xmlns="http://www.w3.org/2000/svg" xmlns:xlink="http://www.w3.org/1999/xlink" x="0px" y="0px"
	 viewBox="0 0 855 239" style="enable-background:new 0 0 855 239;" xml:space="preserve">
<style type="text/css">
	.st0{fill:#BF9F5A;}
	.st1{fill:#313131;}
	.st2{fill:none;}
</style>
<g id="XMLID_14_">
	<g id="XMLID_18_">
		<path id="XMLID_16_" class="st0" d="M197.5,106.1l-10.6,0.2c-3.6,0.1-7.4,0.1-11.3,0.1l-5.9,0l-6-0.1c-4-0.1-8.2-0.1-12.3-0.4
			l-4.5-0.3l-0.1-5.2L146.6,88c0-4.2,0-8.3,0.1-12.5c0.1-4.2,0.2-8.3,0.4-12.4c0.2-4.1,0.4-8.3,0.6-12.4l0.4-6.8l6.8,0l10.4,0.1
			l10.4,0.2c3.5,0.1,6.9,0.2,10.4,0.3c3.5,0.1,6.9,0.3,10.4,0.4l6.4,0.3l-0.2,5.9c-0.2,4.9-0.5,9.9-0.8,14.7l-0.2,3.6l-0.3,3.6
			l-0.7,7.1l-0.4,3.5l-0.4,3.4l-0.8,6.7L197.5,106.1z M196.9,105.5l-0.6-27.3l-0.4-27.1l0.7,0.7L155,51.9l0.8-0.8l-3.2,49.7
			l-0.6-0.7c7.5,0.9,14.9,1.7,22.4,2.6L196.9,105.5z"/>
		<path id="XMLID_19_" class="st0" d="M197.4,106.1c-2.3-1.2-4.8-2.4-7.4-3.7l-4.1-1.9l-4.3-2l-4.4-2.1c-1.5-0.7-3-1.5-4.5-2.3
			c-3-1.6-6.1-3.2-9.1-4.9l-2-1.1l-0.2-3.1l-1-14.1c-0.3-4.7-0.5-9.4-0.7-14.1c-0.2-4.7-0.3-9.4-0.4-14.1c-0.1-4.7-0.1-9.4-0.1-14.1
			l0-12.7l10.8,6.5l7.8,4.7l7.8,4.8l7.7,4.9c2.6,1.6,5.1,3.3,7.6,5l3.2,2.1l-0.2,3.3c-0.3,5.3-0.8,10.6-1.2,15.9l-0.4,3.9l-0.5,3.9
			l-1,7.6l-0.5,3.7L200,86l-1,7c-0.3,2.3-0.6,4.5-0.9,6.7L197.4,106.1z M197,105.4l0-29.2l0.2-28.9l0.3,0.6l-31.4-18.4l1.2-0.7
			L167.1,85l-0.3-0.5c5,3.4,10,6.8,15,10.4L197,105.4z"/>
	</g>
	<path id="XMLID_5_" class="st1" d="M29.6,87.4c-8.8-9.6-13.8-23-13.4-36.5c0.2-6.8,1.7-13.5,4.6-19.8c2.8-6.3,7-12,12.2-16.7
		c5.1-4.7,11.4-8.6,18.5-10.6c3.5-1,7.2-1.4,10.9-1.3c0.9,0,1.8,0.1,2.7,0.2C66,2.8,66.9,2.9,67.8,3c1.8,0.3,3.5,0.8,5.2,1.3
		c6.8,2.2,12.9,5.9,18,10.5c5.1,4.6,9.3,10,12.2,15.9l-0.8,0.6c-5.2-4.1-10.3-7.8-15.6-10.8c-5.3-3-10.9-5.3-16.5-6.6
		c-5.6-1.3-11.2-1.6-16.7-0.7c-5.5,0.9-10.9,3.3-15.5,7c-9.3,7.4-15.6,18.7-17,30.9c-0.8,6.1-0.3,12.4,1.2,18.5c0.8,3,1.9,6,3.2,8.9
		c1.3,2.9,2.9,5.6,4.8,8.2L29.6,87.4z"/>
	<path id="XMLID_1_" class="st0" d="M297.2,232.4c-4.3,0.9-8.5,1.9-12.8,2.8l-6.5,1l-3.2,0.5c-1.1,0.2-2.2,0.4-3.3,0.4l-6.5,0.6
		c-2.2,0.2-4.4,0.5-6.6,0.5l-6.6,0.2l-3.3,0.1c-1.1,0-2.2,0-3.3-0.1c-17.6-0.2-35.2-2.7-52.3-7.2c-17.1-4.6-33.7-11.1-49.5-19.3
		c-15.7-8.3-30.6-18.2-44.4-29.5c-13.8-11.3-26.7-23.6-38.5-37c-11.7-13.5-21.9-28.3-30.3-44C21.8,85.7,14.9,69.1,9.8,52.2
		c-5.1-17-8.6-34.3-9.9-51.9L1.5,0c6,16.4,12.3,32.5,19.5,48c7.1,15.5,15.1,30.6,23.9,45c8.8,14.4,18.3,28.4,28.6,41.8
		c10.2,13.4,21.6,26.1,34.3,37.4c12.7,11.3,26.4,21.4,41,29.9c14.6,8.7,30.2,15.8,46.4,21.1c16.2,5.3,33.1,8.7,50.2,10.1
		c1.1,0.1,2.1,0.2,3.2,0.3l3.2,0.1l6.4,0.2c2.2,0.1,4.3,0,6.4,0l6.5-0.2c1.1,0,2.2-0.1,3.2-0.2l3.2-0.3l6.5-0.5
		c4.3-0.5,8.5-1.2,12.8-1.8L297.2,232.4z"/>
	<path id="XMLID_12_" class="st1" d="M176.1,132.3c3.6,2.7,7.2,5.5,10.6,8.5c3.4,3,6.7,6.1,10,9.3c3.2,3.3,6.3,6.7,9.3,10.2
		c2.9,3.6,5.7,7.4,8.2,11.3c2.5,4,5.2,8,7.4,12.3c2.2,4.4,3.7,9.2,4.1,14.3c0.1,1.3,0.1,2.5,0.2,3.8c0,1.3-0.1,2.6-0.2,3.8
		c-0.2,1.3-0.3,2.6-0.6,3.8l-0.4,1.9c-0.2,0.6-0.4,1.2-0.6,1.9c-1.6,4.9-4.6,9.4-8.6,12.4l-1.3-0.7c0.2-4.9,0.1-9-0.6-13
		c-0.6-3.9-1.5-7.7-2.6-11.4c-1.1-3.7-2.2-7.5-3.2-11.5c-1-4-2.2-8-4-11.9c-1.7-3.9-3.7-7.7-5.9-11.4c-2.1-3.8-4.4-7.5-6.9-11.2
		c-2.4-3.7-5-7.3-7.6-10.8c-2.7-3.6-5.4-7.1-8.2-10.6L176.1,132.3z"/>
	<path id="XMLID_6_" class="st2" d="M117.2,86"/>
	<path id="XMLID_7_" class="st2" d="M117.2,84.8"/>
	<path id="XMLID_2_" class="st1" d="M114.6,81.4c3.7,1.4,7.3,3.1,10.8,4.8l5.3,2.6l5.2,2.7c1.7,0.9,3.5,1.8,5.3,2.6
		c1.8,0.9,3.4,1.9,4.9,3.2c1.5,1.3,3,2.6,4.3,4.1c1.3,1.5,2.6,3.1,3.6,5.1l-0.4,0.6c-2.2-0.3-4.1-0.9-6-1.5
		c-1.9-0.7-3.7-1.5-5.4-2.4c-1.7-0.9-3.3-2-4.9-3.2c-1.5-1.3-3-2.5-4.5-3.7l-4.7-3.5l-4.6-3.6l-9.3-7.1L114.6,81.4z"/>
	<path id="XMLID_4_" class="st1" d="M109.2,115.4c7.3-2.6,14.8-4.9,22.3-6.9c7.5-2,15.2-3.7,22.9-5c7.8-1.2,15.6-2.1,23.6-2
		c4,0.1,8.1,0.4,12.2,1.4c2.1,0.5,4.2,1.2,6.2,2.4l0.8,0.5c0.3,0.2,0.5,0.4,0.8,0.6c0.2,0.2,0.5,0.4,0.7,0.6l0.7,0.7
		c0.9,1,1.7,2.3,2.2,3.6c0.4,1.4,0.6,2.9,0.4,4.2l-0.1,1c-0.1,0.3-0.2,0.6-0.2,0.9c-0.1,0.3-0.2,0.6-0.3,0.9l-0.3,0.8
		c-0.9,2.3-2.2,4.1-3.6,5.8c-2.7,3.3-5.8,6.1-9,8.7c-6.4,5.1-13.3,9.1-20.5,12.4c-7.2,3.4-14.6,6.2-22.1,8.6
		c-7.5,2.4-15.1,4.3-22.9,5.5l-0.2-0.8l21.1-10c7-3.3,13.8-6.8,20.5-10.5c6.7-3.7,13.3-7.4,19.4-11.6c3-2.1,5.9-4.4,8.3-6.9
		c1.1-1.3,2.1-2.6,2.8-3.9c0.6-1.3,0.8-2.5,0.6-3.4c-0.3-0.9-1-1.9-2.3-2.7c-1.2-0.8-2.8-1.5-4.5-2c-3.4-1-7.1-1.5-10.9-1.7
		c-7.5-0.5-15.2-0.1-22.9,0.7c-15.3,1.5-30.6,4.7-45.6,8.7L109.2,115.4z"/>
	<polygon id="XMLID_3_" class="st0" points="99.5,46.1 146.5,62.3 98,66.4 83.4,55.1 	"/>
	<path id="XMLID_17_" class="st1" d="M66.2,37.7c-0.4-1.6-0.1-3.5,1-5.1c0.5-0.8,1.2-1.4,2.1-2c0.8-0.5,1.8-0.8,2.8-1
		c1-0.1,2-0.2,3.1,0.1c1,0.2,2,0.8,2.7,1.6c1.4,1.6,1.9,3.9,0.9,5.7l-0.4,0c-1.2-1.5-2.2-2.2-3.1-2.7c-0.5-0.3-0.9-0.5-1.4-0.8
		c-0.5-0.3-1-0.5-1.6-0.6c-1.2-0.1-2.5,0.2-3.5,1.1c-1.1,0.8-1.8,2.2-2.1,3.7L66.2,37.7z"/>
</g>
<g>
	<g id="XMLID_9_">
		<path class="st0" d="M240.5,38h9.5v85.5h-9.5V38z"/>
		<path class="st0" d="M331.8,126.2l-54.8-67l2.7,0.8l0.2,63.5h-9.5V35.4h0.5l54.1,67.3l-2.2-0.6L322.7,38h9.5v88.2H331.8z"/>
		<path class="st0" d="M346.2,38.4h11.2l19.1,65.3l-1.7-0.7l14-43.9l4.4,15.5l-18.8,53L346.2,38.4z M380.4,38.4h9.4l20.9,64.4
			l-2.1-0.5l18.2-64h10.2l-27.8,88.9L380.4,38.4z"/>
		<path class="st0" d="M451.3,38h46.1v11h-36.6v26h32.7v11.1h-32.7v26.4h37.9v11h-47.5V38z"/>
		<path class="st0" d="M551.9,53.3c-2.4-1.5-5.1-2.8-7.9-3.9c-2.9-1.1-5.7-1.7-8.4-1.7c-3.8,0-6.8,1.1-9.1,3.2s-3.4,5-3.4,8.5
			c0,2.7,0.7,4.9,2.2,6.8c1.5,1.9,3.4,3.4,5.7,4.8c2.3,1.3,4.8,2.6,7.4,3.8c2.2,0.9,4.3,2.1,6.5,3.4c2.2,1.3,4.1,2.9,5.8,4.8
			c1.7,1.9,3.1,4.2,4.1,7c1,2.8,1.5,6.1,1.5,10.2c0,4.6-0.9,8.7-2.8,12.4c-1.9,3.7-4.5,6.6-8,8.7c-3.5,2.1-7.6,3.2-12.5,3.2
			c-3.1,0-6-0.4-8.9-1.2c-2.8-0.8-5.5-2-7.9-3.4c-2.4-1.4-4.6-2.9-6.5-4.4l4.2-9c1.6,1.3,3.4,2.6,5.4,3.8c2,1.2,4.2,2.2,6.4,2.9
			c2.2,0.7,4.4,1.1,6.5,1.1c2.3,0,4.5-0.5,6.7-1.4c2.2-0.9,4-2.4,5.4-4.5c1.4-2,2.2-4.8,2.2-8.2c0-2.8-0.6-5.2-1.9-7.2
			c-1.3-2-2.9-3.6-5-5c-2.1-1.4-4.3-2.6-6.7-3.7c-2.3-0.9-4.6-2-6.8-3.3c-2.3-1.3-4.3-2.8-6.3-4.6c-1.9-1.8-3.5-4-4.7-6.6
			c-1.2-2.6-1.8-5.8-1.8-9.5c0-4.5,0.9-8.4,2.7-11.8c1.8-3.3,4.3-6,7.4-7.9c3.1-1.9,6.7-3,10.8-3.1c4.6,0,8.6,0.7,12.1,2
			c3.5,1.3,6.6,3,9.3,4.8L551.9,53.3z"/>
		<path class="st0" d="M566.5,38h47.2v11h-19v74.5h-9.5V49h-18.6V38z"/>
		<path class="st0" d="M647.6,95l-26.3-57H633l21.1,47.2l-2.9,0.2L672,38h11.6l-26.5,57v28.5h-9.5V95z"/>
		<path class="st0" d="M745.5,117.1c-1.2,0.9-2.8,2-4.8,3.2c-2,1.2-4.4,2.2-7.1,3c-2.7,0.8-5.7,1.2-9,1.2
			c-5.4-0.1-10.3-1.3-14.8-3.5c-4.4-2.3-8.2-5.4-11.3-9.3c-3.1-3.9-5.5-8.5-7.1-13.7c-1.6-5.2-2.5-10.7-2.5-16.5
			c0-6.4,0.8-12.3,2.5-17.7c1.7-5.4,4.1-10.1,7.3-14.1c3.2-4,6.9-7.1,11.2-9.3c4.3-2.2,9-3.3,14.1-3.3c4.2,0,8.1,0.7,11.6,2.1
			c3.5,1.4,6.4,3,8.9,4.8l-3.8,10.9c-2-1.7-4.3-3.2-7.2-4.6c-2.8-1.4-5.9-2.1-9.2-2.1c-3.5,0-6.7,0.8-9.8,2.5c-3.1,1.7-5.8,4-8.1,7
			c-2.4,3-4.2,6.5-5.5,10.4c-1.3,3.9-2,8.2-2,12.9c0,4.6,0.6,8.8,1.8,12.8c1.2,4,2.9,7.4,5.2,10.4c2.3,3,5,5.3,8.2,6.9
			c3.2,1.7,6.8,2.5,10.8,2.5c3.6,0,6.8-0.7,9.6-2c2.8-1.3,5.1-2.8,7-4.5L745.5,117.1z"/>
		<path class="st0" d="M776.9,108c0,6.9-1.1,12.8-3.3,17.7c-2.2,4.9-5.2,8.6-9,11.2c-3.8,2.6-8.1,4-13,4.1V130
			c4.6-0.3,8.3-2.3,11.3-5.9c2.9-3.6,4.4-9.1,4.4-16.5V38h9.6V108z"/>
		<path class="st0" d="M790.2,123.5l30.9-89h0.6l31,89h-10.9l-23.1-71l6.8-5.3l-25.8,76.4H790.2z M808.3,91.1h26.4l3.1,9.9h-32.3
			L808.3,91.1z"/>
	</g>
	<g id="XMLID_10_">
		<path class="st1" d="M238.6,205v-65.2h10c3.7,0,6.8,1,9.3,2.9c2.5,2,4.6,4.6,6.2,7.8c1.6,3.3,2.7,6.9,3.4,10.8
			c0.7,3.9,1.1,7.8,1.1,11.8c0,4.9-0.5,9.3-1.4,13.2c-1,3.9-2.3,7.2-4,10c-1.7,2.8-3.6,4.9-5.8,6.4c-2.2,1.5-4.5,2.2-6.9,2.2H238.6z
			 M243.5,196.6h5.9c2,0,3.8-0.5,5.6-1.6c1.7-1.1,3.2-2.6,4.5-4.7c1.3-2,2.3-4.6,3-7.5c0.7-3,1.1-6.4,1.1-10.2c0-4-0.4-7.5-1.1-10.5
			c-0.7-3-1.8-5.6-3-7.6c-1.3-2-2.7-3.6-4.4-4.6c-1.6-1.1-3.3-1.6-5.1-1.6h-6.4V196.6z"/>
		<path class="st1" d="M291.2,163.3l1,6.9l-18.9,11l-1-6.9L291.2,163.3z M276.8,139.8h4.9v56.8h18.6v8.4h-23.5V139.8z"/>
		<path class="st1" d="M312.4,181.9c0,2.9,0.4,5.6,1.2,7.9c0.8,2.3,1.9,4.1,3.2,5.5c1.3,1.3,2.8,2,4.4,2c1.7,0,3.3-0.7,4.6-2
			c1.4-1.3,2.4-3.1,3.2-5.5c0.8-2.3,1.1-4.9,1.1-7.9v-42.1h4.9v42.4c0,4.7-0.6,8.9-1.8,12.4c-1.2,3.5-2.9,6.3-5,8.2
			c-2.1,1.9-4.4,2.9-7,2.9c-2.5,0-4.9-1-7-2.9c-2.1-1.9-3.8-4.7-5-8.2s-1.8-7.7-1.8-12.4v-42.4h4.9V181.9z"/>
		<path class="st1" d="M373.8,199.4c-0.5,0.8-1.2,1.5-2.1,2.3c-0.9,0.8-1.9,1.4-3,2c-1.1,0.6-2.2,1.1-3.4,1.4
			c-1.2,0.4-2.3,0.5-3.3,0.5c-2.9,0-5.6-0.8-8-2.4c-2.4-1.6-4.4-3.9-6.1-6.8s-3-6.3-3.8-10.2c-0.9-3.9-1.3-8.1-1.3-12.6
			c0-5.5,0.5-10.4,1.5-14.7c1-4.3,2.4-7.9,4.1-10.9c1.7-3,3.7-5.2,6-6.8c2.3-1.5,4.7-2.3,7.2-2.3c2.2,0,4.2,0.4,6,1.3
			c1.8,0.9,3.4,2,4.8,3.5l-1.6,8c-0.7-0.7-1.6-1.3-2.6-1.9c-1-0.6-2-1.1-3.1-1.5c-1-0.4-2-0.6-2.9-0.6c-2.2,0-4.2,0.6-5.9,1.8
			s-3.2,2.9-4.5,5c-1.3,2.2-2.2,4.8-2.9,7.9c-0.7,3.1-1,6.6-1,10.4c0,3.5,0.3,6.7,1,9.7c0.7,3,1.6,5.5,2.9,7.7
			c1.3,2.1,2.8,3.8,4.5,4.9c1.7,1.1,3.7,1.7,5.8,1.7c1.2,0,2.4-0.2,3.7-0.6c1.2-0.4,2.2-1.1,3.1-2v-12.8h-7.3v-8.5h12.2V199.4z"/>
		<path class="st1" d="M380.9,172.5c0-4.5,0.5-8.8,1.4-12.8c1-4,2.3-7.6,4-10.7c1.7-3.1,3.7-5.5,6-7.3c2.3-1.7,4.7-2.6,7.3-2.6
			c2.5,0,4.9,0.9,7.2,2.6c2.3,1.7,4.3,4.2,6,7.3c1.7,3.1,3.1,6.7,4.1,10.7c1,4,1.5,8.3,1.5,12.9c0,4.6-0.5,8.9-1.5,12.9
			c-1,4-2.3,7.6-4.1,10.6c-1.7,3-3.7,5.4-6,7.1c-2.3,1.7-4.7,2.6-7.3,2.6c-2.6,0-5-0.8-7.3-2.5c-2.3-1.7-4.2-4-6-7.1
			c-1.7-3-3.1-6.5-4-10.5C381.4,181.6,380.9,177.2,380.9,172.5z M386,172.5c0,3.5,0.3,6.7,1,9.7c0.7,3,1.7,5.6,2.9,7.9
			c1.3,2.3,2.7,4.1,4.4,5.4c1.6,1.3,3.4,1.9,5.4,1.9c1.9,0,3.7-0.6,5.4-1.9c1.6-1.3,3.1-3.1,4.3-5.3c1.2-2.3,2.2-4.9,2.9-7.9
			c0.7-3,1.1-6.2,1.1-9.6c0-3.5-0.4-6.7-1.1-9.7c-0.7-3-1.7-5.7-2.9-8c-1.2-2.3-2.7-4.1-4.4-5.4c-1.7-1.3-3.5-1.9-5.4-1.9
			c-1.9,0-3.7,0.7-5.4,2c-1.7,1.3-3.1,3.1-4.4,5.4c-1.2,2.3-2.2,4.9-2.9,8C386.3,165.9,386,169.1,386,172.5z"/>
		<path class="st1" d="M422,139.8h24.4v8.4h-9.8V205h-4.9v-56.8H422V139.8z"/>
		<path class="st1" d="M454.2,139.8h23.9v8.4h-18.9v19.8H476v8.5h-16.9v20.1h19.6v8.4h-24.6V139.8z"/>
		<path class="st1" d="M497,139.8c1.9,0,3.6,0.4,5.2,1.3c1.6,0.9,2.9,2.2,4.1,3.9c1.2,1.7,2.1,3.8,2.7,6.4c0.7,2.5,1,5.4,1,8.7
			c0,2.6-0.2,5.1-0.6,7.6c-0.4,2.5-1.1,4.7-2.1,6.7c-1,2-2.2,3.6-3.8,4.9c-1.6,1.2-3.5,1.8-5.9,1.8h-5.4v24h-4.9v-65.2H497z
			 M497.5,172.6c1.5,0,2.7-0.4,3.6-1.2c1-0.8,1.7-1.8,2.3-3c0.5-1.2,0.9-2.5,1.2-3.9c0.2-1.4,0.4-2.7,0.4-4.1c0-1.3-0.1-2.7-0.4-4.1
			c-0.3-1.4-0.7-2.7-1.2-3.9c-0.6-1.2-1.3-2.2-2.2-3c-0.9-0.8-2-1.2-3.3-1.2h-5.7v24.3H497.5z M503.6,177.6l9.6,27.4h-5.7l-9.8-27.1
			L503.6,177.6z"/>
		<path class="st1" d="M520.7,205v-67.2h0.1l19.2,48.6l-2.1-0.8l19.2-47.8h0.1V205h-4.9v-47.4l0.4,4.4l-13.8,34.8h-0.1L524.7,162
			l0.8-4.1v47H520.7z"/>
		<path class="st1" d="M567.8,139.8h4.9V205h-4.9V139.8z"/>
		<path class="st1" d="M615,207.1L586.7,156l1.4,0.6l0.1,48.4h-4.9v-67.1h0.3l28,51.3l-1.1-0.5l-0.1-48.8h4.9v67.2H615z"/>
		<path class="st1" d="M623.5,172.5c0-4.5,0.5-8.8,1.4-12.8c1-4,2.3-7.6,4-10.7c1.7-3.1,3.7-5.5,6-7.3c2.3-1.7,4.7-2.6,7.3-2.6
			c2.5,0,4.9,0.9,7.2,2.6c2.3,1.7,4.3,4.2,6,7.3c1.7,3.1,3.1,6.7,4.1,10.7c1,4,1.5,8.3,1.5,12.9c0,4.6-0.5,8.9-1.5,12.9
			c-1,4-2.3,7.6-4.1,10.6c-1.7,3-3.7,5.4-6,7.1c-2.3,1.7-4.7,2.6-7.3,2.6c-2.6,0-5-0.8-7.3-2.5c-2.3-1.7-4.2-4-6-7.1
			c-1.7-3-3.1-6.5-4-10.5C623.9,181.6,623.5,177.2,623.5,172.5z M628.5,172.5c0,3.5,0.3,6.7,1,9.7c0.7,3,1.7,5.6,2.9,7.9
			c1.3,2.3,2.7,4.1,4.4,5.4c1.6,1.3,3.4,1.9,5.4,1.9s3.7-0.6,5.4-1.9c1.6-1.3,3.1-3.1,4.3-5.3c1.2-2.3,2.2-4.9,2.9-7.9
			c0.7-3,1.1-6.2,1.1-9.6c0-3.5-0.4-6.7-1.1-9.7c-0.7-3-1.7-5.7-2.9-8c-1.2-2.3-2.7-4.1-4.4-5.4c-1.7-1.3-3.5-1.9-5.4-1.9
			c-1.9,0-3.7,0.7-5.4,2c-1.7,1.3-3.1,3.1-4.4,5.4c-1.2,2.3-2.2,4.9-2.9,8C628.9,165.9,628.5,169.1,628.5,172.5z"/>
		<path class="st1" d="M663.3,140.1h5.8l9.9,49.7l-0.9-0.5l7.3-33.4l2.3,11.8l-9.7,40.4L663.3,140.1z M681,140.1h4.9l10.8,49.1
			l-1.1-0.4l9.4-48.8h5.3l-14.4,67.8L681,140.1z"/>
		<path class="st1" d="M709.4,205l16-67.9h0.3l16,67.9h-5.6l-12-54.2l3.5-4.1L714.3,205H709.4z M718.8,180.3h13.7l1.6,7.6h-16.7
			L718.8,180.3z"/>
	</g>
</g>
<g>
</g>
<g>
</g>
<g>
</g>
<g>
</g>
<g>
</g>
<g>
</g>
<g>
</g>
<g>
</g>
<g>
</g>
<g>
</g>
<g>
</g>
<g>
</g>
<g>
</g>
<g>
</g>
<g>
</g>
</svg>
